<svg xmlns="http://www.w3.org/2000/svg" width="44" height="44" viewBox="0 0 44 44">
  <g id="Group_19" data-name="Group 19" transform="translate(-1190 -49)">
    <rect id="Rectangle_153" data-name="Rectangle 153" width="44" height="44" rx="22" transform="translate(1190 49)" fill="#1a1a1a"/>
    <g id="Group_18" data-name="Group 18" transform="translate(-65 20)">
      <rect id="Rectangle_154" data-name="Rectangle 154" width="26" height="26" transform="translate(1264 38)" fill="rgba(228,25,11,0)"/>
      <path id="envelope-upload" d="M21.4,14.6a1.049,1.049,0,0,0-1.047,1.05v4.2A1.049,1.049,0,0,1,19.3,20.9H4.642a1.049,1.049,0,0,1-1.047-1.05V9.782l6.158,6.186a3.136,3.136,0,0,0,4.441,0l1.718-1.722a1.053,1.053,0,0,0-1.487-1.491l-1.718,1.722a1.045,1.045,0,0,1-1.466,0L5.071,8.3h6.9a1.05,1.05,0,0,0,0-2.1H4.642A3.146,3.146,0,0,0,1.5,9.352v10.5A3.146,3.146,0,0,0,4.642,23H19.3a3.146,3.146,0,0,0,3.142-3.151v-4.2A1.049,1.049,0,0,0,21.4,14.6ZM23.19,5.455,20.048,2.3a1.081,1.081,0,0,0-1.487,0L15.419,5.455a1.053,1.053,0,1,0,1.487,1.491l1.351-1.365v5.871a1.047,1.047,0,1,0,2.095,0V5.581L21.7,6.946A1.053,1.053,0,1,0,23.19,5.455Z" transform="translate(1264.5 38.495)" fill="#fff"/>
    </g>
  </g>
</svg>
