<svg xmlns="http://www.w3.org/2000/svg" width="44" height="44" viewBox="0 0 44 44">
  <g id="Group_21" data-name="Group 21" transform="translate(-1352 -49)">
    <rect id="Rectangle_153" data-name="Rectangle 153" width="44" height="44" rx="22" transform="translate(1352 49)" fill="#1a1a1a"/>
    <g id="Group_20" data-name="Group 20" transform="translate(-104 24)">
      <rect id="Rectangle_155" data-name="Rectangle 155" width="26" height="26" transform="translate(1465 34)" fill="rgba(228,25,11,0)"/>
      <path id="mobile-vibrate" d="M11.048,15.972l-.174-.139-.209-.116-.209-.058a1.158,1.158,0,0,0-1.043.313.963.963,0,0,0-.255.383,1.091,1.091,0,0,0,0,.881,1.24,1.24,0,0,0,.626.626,1.158,1.158,0,0,0,.44.093,1.262,1.262,0,0,0,.452-.093,1.008,1.008,0,0,0,.371-.255,1.078,1.078,0,0,0,.336-.812.975.975,0,0,0-.093-.441,1.079,1.079,0,0,0-.243-.383ZM3.667,9.757a1.158,1.158,0,0,0,.823-.348L9.4,4.492A1.156,1.156,0,0,0,7.769,2.856L2.856,7.773a1.166,1.166,0,0,0,.811,1.983Zm20.485,7.863a1.158,1.158,0,0,0-1.634,0l-4.913,4.917a1.156,1.156,0,1,0,1.634,1.635l4.913-4.859a1.16,1.16,0,0,0,0-1.693Zm.2-6.564A3.481,3.481,0,0,0,23.341,8.6L18.417,3.668a3.566,3.566,0,0,0-4.913,0L3.667,13.514a3.481,3.481,0,0,0,0,4.917L8.592,23.36h0a3.474,3.474,0,0,0,4.913,0l9.837-9.846a3.481,3.481,0,0,0,1.008-2.459Zm-2.653.823-9.825,9.834a1.158,1.158,0,0,1-1.645,0h0L5.313,16.8a1.16,1.16,0,0,1,0-1.647l9.825-9.834a1.158,1.158,0,0,1,1.645,0L21.7,10.232a1.16,1.16,0,0,1,0,1.647Z" transform="translate(1464.481 33.481)" fill="#fff"/>
    </g>
  </g>
</svg>
