<svg xmlns="http://www.w3.org/2000/svg" width="50" height="50" viewBox="0 0 50 50"><g transform="translate(-284.747 -672.747)"><rect width="50" height="50" transform="translate(284.747 672.747)" fill="rgba(255,255,255,0)"/><path d="M34.406,7.183a18.372,18.372,0,0,0-25.591,0,17.451,17.451,0,0,0,0,25.051L20.053,43.257a2.165,2.165,0,0,0,3.028,0L34.406,32.13a17.378,17.378,0,0,0,0-24.947Zm-3.05,21.962L21.61,38.727l-9.746-9.582a13.286,13.286,0,0,1,.006-19.069,13.987,13.987,0,0,1,19.48,0A13.286,13.286,0,0,1,31.356,29.145ZM15.212,13.3a8.884,8.884,0,0,0,0,12.734,9.336,9.336,0,0,0,9.974,1.975,9,9,0,0,0,5.722-8.238A8.758,8.758,0,0,0,28.221,13.4a9.31,9.31,0,0,0-13.009-.1Zm10,9.77a5.049,5.049,0,0,1-6.279.645,4.808,4.808,0,0,1-1.857-5.907,4.992,4.992,0,0,1,5.564-2.922,4.891,4.891,0,0,1,4,4.781,4.818,4.818,0,0,1-1.535,3.4Z" transform="translate(288.148 674.813)"/></g></svg>