<svg xmlns="http://www.w3.org/2000/svg" width="70" height="70" viewBox="0 0 70 70"><g transform="translate(-1115 -751)"><rect width="70" height="70" rx="10" transform="translate(1115 751)" fill="#e4190b"/><rect width="26" height="26" transform="translate(1138 773)" fill="rgba(255,255,255,0)"/><path d="M21.68,10.334,9.969,3.562A4.117,4.117,0,0,0,5.8,3.573,4.187,4.187,0,0,0,3.75,7.229V20.821a4.137,4.137,0,0,0,6.219,3.618L21.68,17.668a4.2,4.2,0,0,0,0-7.236Zm-1.212,5.122L8.757,22.325a1.722,1.722,0,0,1-2.582-1.5V7.18a1.739,1.739,0,0,1,.861-1.5A1.819,1.819,0,0,1,7.9,5.444a1.855,1.855,0,0,1,.861.232L20.468,12.5a1.743,1.743,0,0,1,0,3.007Z" transform="translate(1137.25 771.998)" fill="#fff"/></g></svg>