<svg xmlns="http://www.w3.org/2000/svg" width="50" height="50" viewBox="0 0 50 50"><g transform="translate(-913.97 -687.97)"><rect width="50" height="50" transform="translate(913.97 687.97)" fill="rgba(255,255,255,0)"/><path d="M29.674,24.467l-4.433-2.559V12.564a2.113,2.113,0,1,0-4.226,0V23.128a2.112,2.112,0,0,0,1.056,1.83l5.489,3.169a2.113,2.113,0,1,0,2.113-3.66ZM23.128,2A21.128,21.128,0,1,0,44.256,23.128,21.128,21.128,0,0,0,23.128,2Zm0,38.031a16.9,16.9,0,1,1,16.9-16.9A16.9,16.9,0,0,1,23.128,40.031Z" transform="translate(915.841 689.841)"/></g></svg>