<svg xmlns="http://www.w3.org/2000/svg" width="50" height="50" viewBox="0 0 50 50"><g transform="translate(-639 -696)"><rect width="50" height="50" transform="translate(639 696)" fill="rgba(255,255,255,0)"/><path d="M37.962,4H8.346A6.419,6.419,0,0,0,2,10.49V32.125a6.419,6.419,0,0,0,6.346,6.49H37.962a6.419,6.419,0,0,0,6.346-6.49V10.49A6.419,6.419,0,0,0,37.962,4Zm-.867,4.327L24.656,21.048a2.082,2.082,0,0,1-3,0L9.213,8.327Zm2.983,23.8a2.14,2.14,0,0,1-2.115,2.163H8.346a2.14,2.14,0,0,1-2.115-2.163V11.377L18.669,24.1a6.247,6.247,0,0,0,8.969,0L40.077,11.377Z" transform="translate(640.846 699.692)"/></g></svg>