<svg xmlns="http://www.w3.org/2000/svg" width="50" height="50" viewBox="0 0 50 50"><g transform="translate(-1138.288 -773.288)"><rect width="50" height="50" transform="translate(1138.288 773.288)" fill="rgba(255,255,255,0)"/><path d="M38.629,17.264,15.848,4.091a8.008,8.008,0,0,0-8.1.022A8.146,8.146,0,0,0,3.75,11.225v26.44a8.048,8.048,0,0,0,12.1,7.038L38.629,31.53a8.166,8.166,0,0,0,0-14.076Zm-2.358,9.963L13.49,40.589a3.349,3.349,0,0,1-5.023-2.925V11.129A3.382,3.382,0,0,1,10.142,8.2a3.538,3.538,0,0,1,1.674-.451A3.609,3.609,0,0,1,13.49,8.2L36.271,21.473a3.39,3.39,0,0,1,0,5.849Z" transform="translate(1140.085 773.889)" fill="#171717"/></g></svg>