<svg xmlns="http://www.w3.org/2000/svg" width="50" height="50" viewBox="0 0 50 50"><g transform="translate(-454.719 -660.719)"><rect width="50" height="50" transform="translate(454.719 660.719)" fill="rgba(255,255,255,0)"/><path d="M20.707,31.889l-.306-.251a1.533,1.533,0,0,0-.367-.188l-.367-.167a2,2,0,0,0-1.854.565,2.415,2.415,0,0,0-.428.69,2.133,2.133,0,0,0,.435,2.276,2,2,0,0,0,2.213.464,2.97,2.97,0,0,0,.672-.46,2.133,2.133,0,0,0,.428-2.28,2.1,2.1,0,0,0-.428-.648ZM27.41,2h-16.3A6.2,6.2,0,0,0,5,8.275V37.557a6.2,6.2,0,0,0,6.112,6.275h16.3a6.2,6.2,0,0,0,6.112-6.275V8.275A6.2,6.2,0,0,0,27.41,2Zm2.037,35.557a2.065,2.065,0,0,1-2.037,2.092h-16.3a2.065,2.065,0,0,1-2.037-2.092V8.275a2.065,2.065,0,0,1,2.037-2.092h16.3a2.065,2.065,0,0,1,2.037,2.092Z" transform="translate(460.458 662.803)"/></g></svg>