<svg xmlns="http://www.w3.org/2000/svg" width="97" height="66" viewBox="0 0 97 66">
  <g id="Group_1" data-name="Group 1" transform="translate(-528.985 -413.677)">
    <path id="PS" d="M716.557,425.8l18.188-6.063-18.187-6.062-18.188,6.063v12.125l18.188,6.063v6.063l-18.188-6.062v18.188l18.188,6.063V450.052l18.188-6.063V425.8l-18.187,6.063Z" transform="translate(-139.072)" fill="#e4190b"/>
    <g id="Bungee-Regular" transform="translate(528.985 467.552)">
      <path id="M" d="M1016.818,731.567h-2.129a.492.492,0,0,1-.394-.139.65.65,0,0,1-.123-.442V720.509a.664.664,0,0,1,.123-.445.5.5,0,0,1,.394-.136h2.3a.638.638,0,0,1,.38.11,1.065,1.065,0,0,1,.277.373l1.288,2.637a1.237,1.237,0,0,0,.123.208.16.16,0,0,0,.134.066h.129a.161.161,0,0,0,.137-.066,1.245,1.245,0,0,0,.123-.208l1.271-2.637a1.066,1.066,0,0,1,.28-.373.632.632,0,0,1,.38-.11h2.316a.5.5,0,0,1,.394.136.663.663,0,0,1,.123.445v10.477a.649.649,0,0,1-.123.442.491.491,0,0,1-.394.139h-2.2a.491.491,0,0,1-.394-.139.648.648,0,0,1-.123-.442v-5.693l-.844,1.765a.93.93,0,0,1-.307.395.768.768,0,0,1-.45.12h-.573a.774.774,0,0,1-.45-.12.952.952,0,0,1-.307-.395l-.844-1.765v5.693a.649.649,0,0,1-.123.442A.491.491,0,0,1,1016.818,731.567Z" transform="translate(-927.344 -719.685)" fill="#e4190b"/>
      <path id="E" d="M969.056,731.567h-6.635a.492.492,0,0,1-.394-.139.65.65,0,0,1-.123-.442V720.509a.664.664,0,0,1,.123-.445.5.5,0,0,1,.394-.136h6.635a.5.5,0,0,1,.394.136.663.663,0,0,1,.123.445V722.4a.664.664,0,0,1-.123.445.5.5,0,0,1-.394.136h-3.948v1.247H967.9a.5.5,0,0,1,.391.136.664.664,0,0,1,.123.445v1.73a.649.649,0,0,1-.123.442.488.488,0,0,1-.391.139h-2.791v1.389h3.948a.5.5,0,0,1,.394.139.664.664,0,0,1,.123.445v1.891a.649.649,0,0,1-.123.442A.491.491,0,0,1,969.056,731.567Z" transform="translate(-884.43 -719.685)" fill="#e4190b"/>
      <path id="T" d="M911.636,731.567H909.32a.491.491,0,0,1-.394-.139.649.649,0,0,1-.123-.442v-7.938h-2.1a.5.5,0,0,1-.394-.139.664.664,0,0,1-.123-.445v-1.955a.663.663,0,0,1,.123-.445.5.5,0,0,1,.394-.136h7.552a.5.5,0,0,1,.394.136.664.664,0,0,1,.12.445v1.955a.665.665,0,0,1-.12.445.5.5,0,0,1-.394.139h-2.1v7.938a.65.65,0,0,1-.12.442A.492.492,0,0,1,911.636,731.567Z" transform="translate(-838.682 -719.685)" fill="#e4190b"/>
      <path id="S" d="M861.9,731.567h-4.52a.489.489,0,0,1-.391-.139.649.649,0,0,1-.123-.442v-1.891a.665.665,0,0,1,.123-.445.5.5,0,0,1,.391-.139h3.85a.318.318,0,0,0,.28-.136.582.582,0,0,0,.092-.331.7.7,0,0,0-.092-.4.369.369,0,0,0-.28-.145l-2.146-.341a2.927,2.927,0,0,1-1.609-.742,2.606,2.606,0,0,1-.609-1.942v-1.7a2.743,2.743,0,0,1,.788-2.109,3.044,3.044,0,0,1,2.174-.736h4.006a.5.5,0,0,1,.391.136.663.663,0,0,1,.123.445v1.923a.664.664,0,0,1-.123.445.5.5,0,0,1-.391.139H860.5a.333.333,0,0,0-.288.136.573.573,0,0,0-.1.347.611.611,0,0,0,.1.357.37.37,0,0,0,.288.161l2.129.322a3,3,0,0,1,1.618.745,2.58,2.58,0,0,1,.615,1.939v1.7a2.736,2.736,0,0,1-.793,2.109A3.067,3.067,0,0,1,861.9,731.567Z" transform="translate(-798.19 -719.685)" fill="#e4190b"/>
      <path id="Y" d="M805.6,731.567h-2.316a.492.492,0,0,1-.394-.139.649.649,0,0,1-.123-.442v-2.071l-2.188-3.312a3.263,3.263,0,0,1-.436-.875,4.235,4.235,0,0,1-.109-1.115v-3.1a.663.663,0,0,1,.123-.445.5.5,0,0,1,.394-.136h2.2a.5.5,0,0,1,.394.136.664.664,0,0,1,.123.445v2.652c0,.107,0,.221.014.338a.734.734,0,0,0,.115.341l.657,1.162a.626.626,0,0,0,.151.211.288.288,0,0,0,.193.063h.142a.284.284,0,0,0,.193-.063.626.626,0,0,0,.151-.211l.659-1.162a.805.805,0,0,0,.115-.341c.008-.117.014-.231.014-.338v-2.652a.664.664,0,0,1,.12-.445.5.5,0,0,1,.394-.136h2.132a.5.5,0,0,1,.394.136.665.665,0,0,1,.12.445v3.1a3.967,3.967,0,0,1-.115,1.115,3.781,3.781,0,0,1-.428.875l-2.176,3.328v2.055a.649.649,0,0,1-.12.442A.491.491,0,0,1,805.6,731.567Z" transform="translate(-751.532 -719.685)" fill="#e4190b"/>
      <path id="S-2" data-name="S" d="M754.4,731.567h-4.52a.488.488,0,0,1-.391-.139.649.649,0,0,1-.123-.442v-1.891a.664.664,0,0,1,.123-.445.5.5,0,0,1,.391-.139h3.85a.318.318,0,0,0,.279-.136.582.582,0,0,0,.092-.331.7.7,0,0,0-.092-.4.368.368,0,0,0-.279-.145l-2.146-.341a2.927,2.927,0,0,1-1.609-.742,2.606,2.606,0,0,1-.609-1.942v-1.7a2.743,2.743,0,0,1,.788-2.109,3.044,3.044,0,0,1,2.174-.736h4.006a.5.5,0,0,1,.391.136.664.664,0,0,1,.123.445v1.923a.665.665,0,0,1-.123.445.5.5,0,0,1-.391.139H753a.333.333,0,0,0-.288.136.574.574,0,0,0-.1.347.611.611,0,0,0,.1.357.37.37,0,0,0,.288.161l2.129.322a3,3,0,0,1,1.618.745,2.58,2.58,0,0,1,.615,1.939v1.7a2.736,2.736,0,0,1-.794,2.109A3.067,3.067,0,0,1,754.4,731.567Z" transform="translate(-709.925 -719.685)" fill="#e4190b"/>
      <path id="F" d="M704.135,731.567H701.92a.491.491,0,0,1-.394-.139.649.649,0,0,1-.123-.442V720.509a.663.663,0,0,1,.123-.445.5.5,0,0,1,.394-.136H708.3a.5.5,0,0,1,.394.136.664.664,0,0,1,.12.445v1.923a.665.665,0,0,1-.12.445.5.5,0,0,1-.394.139h-3.646v1.68h2.486a.5.5,0,0,1,.394.139.66.66,0,0,1,.123.442v1.942a.664.664,0,0,1-.123.445.5.5,0,0,1-.394.136h-2.486v3.186a.65.65,0,0,1-.123.442A.492.492,0,0,1,704.135,731.567Z" transform="translate(-670.548 -719.685)" fill="#e4190b"/>
      <path id="O" d="M650.491,727.394a4.451,4.451,0,0,1-.193,1.352,2.277,2.277,0,0,1-.685,1.036,3.493,3.493,0,0,1-1.361.669,8.315,8.315,0,0,1-2.2.243,8.4,8.4,0,0,1-2.2-.243,3.5,3.5,0,0,1-1.366-.669,2.263,2.263,0,0,1-.687-1.036,4.453,4.453,0,0,1-.193-1.352v-5.513a4.431,4.431,0,0,1,.193-1.348,2.3,2.3,0,0,1,.687-1.042,3.385,3.385,0,0,1,1.366-.679,8.274,8.274,0,0,1,2.2-.243,8.186,8.186,0,0,1,2.2.243,3.377,3.377,0,0,1,1.361.679,2.312,2.312,0,0,1,.685,1.042,4.429,4.429,0,0,1,.193,1.348Zm-5.635-.581a.754.754,0,0,0,.215.543,2.347,2.347,0,0,0,1.975,0,.752.752,0,0,0,.212-.543v-4.348a.725.725,0,0,0-.212-.527,2.346,2.346,0,0,0-1.975,0,.728.728,0,0,0-.215.527Z" transform="translate(-621.454 -718.569)" fill="#e4190b"/>
      <path id="R" d="M586.22,731.567h-2.2a.492.492,0,0,1-.394-.139.65.65,0,0,1-.123-.442V720.509a.664.664,0,0,1,.123-.445.5.5,0,0,1,.394-.136h4.763a2.718,2.718,0,0,1,2.21.751,3,3,0,0,1,.606,1.948v.742a3.267,3.267,0,0,1-.179,1.156,1.191,1.191,0,0,1-.623.688,1.8,1.8,0,0,1,1.252.711,2.572,2.572,0,0,1,.481,1.632v3.429a.649.649,0,0,1-.123.442.489.489,0,0,1-.391.139H589.8a.491.491,0,0,1-.394-.139.649.649,0,0,1-.12-.442V728.51a.907.907,0,0,0-.123-.524.482.482,0,0,0-.422-.171h-2v3.17a.649.649,0,0,1-.12.442A.491.491,0,0,1,586.22,731.567Zm.514-8.731v2.071h1.073a.532.532,0,0,0,.5-.221,1.067,1.067,0,0,0,.128-.54v-.55a1.078,1.078,0,0,0-.128-.543.537.537,0,0,0-.5-.218Z" transform="translate(-573.745 -719.685)" fill="#e4190b"/>
      <path id="P" d="M531.717,731.567H529.5a.491.491,0,0,1-.394-.139.649.649,0,0,1-.123-.442V720.509a.663.663,0,0,1,.123-.445.5.5,0,0,1,.394-.136h4.375a3.318,3.318,0,0,1,2.663.872,3.491,3.491,0,0,1,.715,2.28v2.068a3.491,3.491,0,0,1-.715,2.28,3.308,3.308,0,0,1-2.663.875h-1.643v2.684a.649.649,0,0,1-.123.442A.491.491,0,0,1,531.717,731.567Zm.486-8.617v2.441h1.288a.557.557,0,0,0,.545-.243,1.174,1.174,0,0,0,.128-.549v-.856a1.174,1.174,0,0,0-.128-.549.562.562,0,0,0-.545-.243Z" transform="translate(-528.985 -719.685)" fill="#e4190b"/>
    </g>
  </g>
</svg>
