<svg xmlns="http://www.w3.org/2000/svg" width="24.002" height="17.46" viewBox="0 0 24.002 17.46"><path d="M-1407,202.46c-.069,0-6.9-.005-8.6-.461a2.8,2.8,0,0,1-1.94-1.92,29.074,29.074,0,0,1-.461-5.33,29.128,29.128,0,0,1,.461-5.29,2.784,2.784,0,0,1,1.94-2c1.7-.455,8.531-.46,8.6-.46s6.9,0,8.6.419a2.79,2.79,0,0,1,1.94,2,29.154,29.154,0,0,1,.46,5.33,29.1,29.1,0,0,1-.46,5.25,2.787,2.787,0,0,1-1.94,2C-1400.1,202.455-1406.931,202.46-1407,202.46Zm-2.25-10.98v6.539l5.75-3.27-5.75-3.27Z" transform="translate(1419.001 -186)" fill="none" stroke="#fff" stroke-linecap="round" stroke-linejoin="round" stroke-width="2"/></svg>