<svg xmlns="http://www.w3.org/2000/svg" width="26" height="26" viewBox="0 0 26 26"><g transform="translate(-914.153 -688.153)"><rect width="26" height="26" transform="translate(914.153 688.153)" fill="rgba(255,255,255,0)"/><path d="M16.594,13.848,14.256,12.5V7.571a1.114,1.114,0,1,0-2.228,0v5.571a1.114,1.114,0,0,0,.557.965l2.895,1.671a1.114,1.114,0,1,0,1.114-1.93ZM13.142,2A11.142,11.142,0,1,0,24.284,13.142,11.142,11.142,0,0,0,13.142,2Zm0,20.055a8.913,8.913,0,1,1,8.913-8.913A8.913,8.913,0,0,1,13.142,22.055Z" transform="translate(914.011 688.011)"/></g></svg>