<svg xmlns="http://www.w3.org/2000/svg" width="26" height="26" viewBox="0 0 26 26"><g transform="translate(-284.269 -672.269)"><rect width="26" height="26" transform="translate(284.269 672.269)" fill="rgba(255,255,255,0)"/><path d="M19.024,4.6a9.224,9.224,0,0,0-12.848,0,8.762,8.762,0,0,0,0,12.577l5.643,5.534a1.087,1.087,0,0,0,1.52,0l5.685-5.586a8.725,8.725,0,0,0,0-12.525ZM17.493,15.626,12.6,20.437,7.707,15.626a6.67,6.67,0,0,1,0-9.574,7.022,7.022,0,0,1,9.78,0A6.67,6.67,0,0,1,17.493,15.626ZM9.388,7.671a4.461,4.461,0,0,0,0,6.393,4.687,4.687,0,0,0,5.008.992,4.519,4.519,0,0,0,2.873-4.136,4.4,4.4,0,0,0-1.349-3.2,4.674,4.674,0,0,0-6.531-.052Zm5.022,4.905a2.535,2.535,0,0,1-3.153.324,2.414,2.414,0,0,1-.932-2.966,2.506,2.506,0,0,1,2.793-1.467,2.456,2.456,0,0,1,2.009,2.4,2.419,2.419,0,0,1-.771,1.708Z" transform="translate(284.675 672.761)"/></g></svg>